<svg width="64" height="64" viewBox="0 0 64 64" fill="none" xmlns="http://www.w3.org/2000/svg">
<circle cx="32" cy="32" r="32" fill="#5F6B55"/>
<path d="M18.2533 23.5417C18.2444 23.3777 18.2033 23.2172 18.1324 23.0691C18.0615 22.921 17.9621 22.7884 17.8399 22.6787C17.7177 22.5691 17.5751 22.4846 17.4203 22.43C17.2654 22.3755 17.1014 22.352 16.9374 22.3608C16.7735 22.3697 16.6129 22.4108 16.4648 22.4817C16.3168 22.5526 16.1841 22.652 16.0745 22.7742C15.9648 22.8964 15.8803 23.039 15.8258 23.1938C15.7712 23.3487 15.7477 23.5127 15.7566 23.6767L18.2533 23.5417ZM19.8633 17.1533C19.6444 17.3952 19.5287 17.7131 19.541 18.0391C19.5533 18.3651 19.6925 18.6734 19.929 18.8981C20.1655 19.1229 20.4805 19.2463 20.8067 19.2419C21.1329 19.2376 21.4445 19.1059 21.6749 18.875L19.8633 17.1533ZM29.7733 45.02C29.9122 45.1096 30.0676 45.1707 30.2304 45.1998C30.3932 45.2289 30.5601 45.2254 30.7215 45.1895C30.883 45.1537 31.0357 45.0861 31.1708 44.9908C31.3059 44.8955 31.4208 44.7744 31.5088 44.6343C31.5968 44.4943 31.6561 44.3383 31.6833 44.1752C31.7106 44.0121 31.7052 43.8452 31.6674 43.6842C31.6297 43.5232 31.5604 43.3713 31.4636 43.2372C31.3667 43.1032 31.2443 42.9897 31.1033 42.9033L29.7733 45.02ZM37.1883 45.43C36.8636 45.3622 36.5253 45.4261 36.2477 45.6077C35.9701 45.7893 35.7761 46.0737 35.7083 46.3983C35.6404 46.723 35.7043 47.0613 35.8859 47.3389C36.0675 47.6164 36.3519 47.8105 36.6766 47.8783L37.1883 45.43ZM38.0749 37.9067L38.8333 37.1067L37.0199 35.385L36.2616 36.185L38.0749 37.9067ZM41.3316 36.77L44.5149 38.6033L45.7633 36.4367L42.5783 34.6033L41.3316 36.77ZM45.1299 42.4033L42.7616 44.895L44.5749 46.6183L46.9416 44.125L45.1299 42.4033ZM25.9316 38.5983C19.4716 31.7967 18.3883 26.0583 18.2533 23.5417L15.7566 23.6767C15.9233 26.76 17.2299 33.0667 24.1199 40.32L25.9316 38.5983ZM28.2249 27.5367L28.7016 27.0333L26.8899 25.3117L26.4116 25.815L28.2249 27.5367ZM29.0783 20.7667L26.9766 17.795L24.9349 19.2383L27.0349 22.21L29.0783 20.7667ZM27.3166 26.675C27.0166 26.3859 26.7138 26.0998 26.4083 25.8167L26.4049 25.82L26.3999 25.825L26.3166 25.9217C26.1534 26.138 26.0241 26.378 25.9333 26.6333C25.7699 27.0917 25.6833 27.6983 25.7933 28.455C26.0099 29.9417 26.9849 31.94 29.5299 34.6217L31.3433 32.8983C28.9633 30.3933 28.3766 28.8517 28.2666 28.0917C28.2133 27.725 28.2666 27.5333 28.2883 27.4717L28.3016 27.44L28.2549 27.5017L28.2249 27.5367L27.3166 26.675ZM29.5299 34.62C32.0683 37.2933 33.9849 38.3433 35.4466 38.5817C36.1983 38.7033 36.8066 38.605 37.2666 38.4233C37.5223 38.324 37.7599 38.1832 37.9699 38.0067L38.0283 37.95L38.0516 37.9267L38.0633 37.9167L38.0683 37.9117L38.0699 37.9083C38.0699 37.9083 38.0733 37.9067 37.1666 37.045C36.2599 36.185 36.2616 36.1833 36.2616 36.1817L36.2649 36.18L36.2683 36.175L36.2783 36.1667L36.3566 36.0967C36.3721 36.0878 36.3694 36.0883 36.3483 36.0983C36.3149 36.1117 36.1649 36.165 35.8483 36.1133C35.1783 36.0033 33.7316 35.4133 31.3433 32.8983L29.5299 34.62ZM26.9766 17.795C25.2866 15.405 21.9066 15 19.8633 17.1533L21.6749 18.875C22.5466 17.9583 24.0816 18.03 24.9349 19.2383L26.9766 17.795ZM42.7616 44.895C42.2966 45.385 41.8116 45.6483 41.3383 45.695L41.5833 48.1817C42.8283 48.06 43.8366 47.3967 44.5749 46.6183L42.7616 44.895ZM28.7016 27.0333C30.3149 25.335 30.4283 22.6783 29.0783 20.7667L27.0366 22.21C27.7399 23.205 27.6316 24.5317 26.8899 25.3117L28.7016 27.0333ZM44.5149 38.6033C45.8833 39.3917 46.1516 41.3283 45.1299 42.4033L46.9416 44.125C49.1166 41.835 48.4833 38.0033 45.7633 36.4367L44.5149 38.6033ZM38.8333 37.1067C39.4749 36.43 40.4766 36.2783 41.3316 36.77L42.5783 34.6033C40.7466 33.55 38.4783 33.8517 37.0199 35.385L38.8333 37.1067ZM31.1033 42.9033C29.4649 41.8733 27.7199 40.48 25.9316 38.5983L24.1199 40.32C26.0433 42.345 27.9483 43.8733 29.7733 45.02L31.1033 42.9033ZM41.3366 45.695C39.9484 45.8161 38.5498 45.7268 37.1883 45.43L36.6766 47.8783C38.2875 48.2264 39.9418 48.3287 41.5833 48.1817L41.3366 45.695Z" fill="#EEF1E0"/>
</svg>
